<?xml version="1.0" encoding="UTF-8" standalone="no"?><!DOCTYPE svg PUBLIC "-//W3C//DTD SVG 1.1//EN" "http://www.w3.org/Graphics/SVG/1.1/DTD/svg11.dtd"><svg width="100%" height="100%" viewBox="0 0 800 800" version="1.1" xmlns="http://www.w3.org/2000/svg" xmlns:xlink="http://www.w3.org/1999/xlink" xml:space="preserve" xmlns:serif="http://www.serif.com/" style="fill-rule:evenodd;clip-rule:evenodd;stroke-linejoin:round;stroke-miterlimit:2;"><rect x="163" y="189" width="467" height="422.284" style="fill:#fff;"/><path d="M399.999,741.517c186.495,0 341.52,-155.021 341.52,-341.517c0,-186.83 -155.359,-341.517 -341.855,-341.517c-186.831,0 -341.183,154.687 -341.183,341.517c0,186.496 154.688,341.517 341.518,341.517Zm-87.389,-258.146c-83.036,-82.701 -135.937,-188.171 -73.326,-250.781c3.683,-3.684 7.702,-7.367 11.385,-11.05c19.084,-18.08 37.5,-17.076 53.905,6.027l43.527,61.942c14.732,21.428 11.049,33.482 -4.687,50.224l-13.728,15.067c-5.022,4.686 -3.013,11.049 -0.669,15.066c6.362,12.054 24.442,33.483 43.86,52.903c20.09,20.088 40.514,37.164 53.237,44.195c4.689,2.679 11.385,3.349 15.737,-0.67l14.398,-13.727c16.071,-15.737 29.13,-19.754 49.888,-5.023c28.794,20.425 46.206,32.479 63.282,44.197c21.092,15.402 26.115,34.488 4.687,53.906c-3.683,3.683 -7.032,7.702 -10.715,11.384c-62.611,62.278 -167.745,9.375 -250.781,-73.66Z" style="fill-rule:nonzero;"/></svg>
